<?xml version="1.0" encoding="UTF-8" standalone="no"?><!DOCTYPE svg PUBLIC "-//W3C//DTD SVG 1.1//EN" "http://www.w3.org/Graphics/SVG/1.1/DTD/svg11.dtd"><svg width="100%" height="100%" viewBox="0 0 50 50" version="1.1" xmlns="http://www.w3.org/2000/svg" xmlns:xlink="http://www.w3.org/1999/xlink" xml:space="preserve" xmlns:serif="http://www.serif.com/" style="fill-rule:evenodd;clip-rule:evenodd;stroke-linejoin:round;stroke-miterlimit:2;"><rect id="Artboard1" x="0" y="0" width="50" height="50" style="fill:none;"/><g id="comfort"><path d="M43.473,3.973c0.402,-0.525 0.301,-1.277 -0.223,-1.679l-1.903,-1.458c-0.526,-0.401 -1.278,-0.302 -1.681,0.224l-34.05,44.474c-0.402,0.525 -1.047,2.053 0.439,3.19c1.302,0.998 2.749,0.53 3.366,-0.276l34.052,-44.475Zm-10.063,10.037c-0.061,0.08 -0.112,0.132 -0.164,0.174c-0.01,0.009 -0.025,0.014 -0.036,0.004l-0.077,-0.058c-0.012,-0.01 -0.014,-0.026 -0.005,-0.036c0.001,-0.002 0.001,-0.002 0.002,-0.002c0.038,-0.039 0.125,-0.142 0.155,-0.182c0.073,-0.095 0.061,-0.15 -0.001,-0.197c-0.042,-0.032 -0.079,-0.028 -0.175,0.01l-0.192,0.077c-0.135,0.054 -0.217,0.034 -0.293,-0.024c-0.117,-0.09 -0.15,-0.224 0.002,-0.423c0.054,-0.07 0.14,-0.16 0.176,-0.19c0.01,-0.009 0.024,-0.012 0.036,-0.004l0.078,0.061c0.011,0.007 0.014,0.022 0.006,0.032c-0.001,0.001 -0.001,0.001 -0.001,0.003c-0.061,0.065 -0.12,0.132 -0.172,0.202c-0.061,0.079 -0.059,0.133 -0.01,0.17c0.035,0.027 0.07,0.026 0.161,-0.015l0.171,-0.073c0.155,-0.068 0.247,-0.046 0.332,0.018c0.107,0.083 0.171,0.239 0.007,0.453Zm0.662,-0.895c-0.021,0.038 -0.043,0.087 -0.14,0.215c-0.107,0.138 -0.227,0.218 -0.409,0.079l-0.373,-0.286c-0.182,-0.139 -0.137,-0.276 -0.03,-0.415c0.098,-0.128 0.139,-0.162 0.17,-0.192c0.015,-0.014 0.024,-0.015 0.039,-0.004l0.068,0.053c0.013,0.008 0.015,0.026 0.006,0.037l-0.168,0.219c-0.047,0.061 -0.043,0.1 0.028,0.155l0.116,0.088l0.222,-0.29c0.009,-0.012 0.026,-0.014 0.037,-0.005l0.077,0.059c0.012,0.009 0.014,0.026 0.005,0.037l-0.222,0.291l0.138,0.105c0.071,0.054 0.11,0.048 0.157,-0.014l0.167,-0.218c0.009,-0.012 0.026,-0.014 0.037,-0.005l0.069,0.052c0.015,0.012 0.016,0.021 0.006,0.039Zm0.607,-0.78l-0.084,0.11c-0.009,0.012 -0.024,0.012 -0.036,0.003l-0.482,-0.37c-0.122,-0.093 -0.204,-0.087 -0.283,0.015c-0.041,0.053 -0.082,0.116 -0.104,0.154l0.644,0.494c0.013,0.009 0.015,0.025 0.007,0.037l-0.084,0.108c-0.008,0.012 -0.025,0.013 -0.036,0.004l-0.709,-0.543c-0.04,-0.031 -0.04,-0.049 -0.02,-0.087c0.036,-0.064 0.115,-0.188 0.163,-0.25c0.152,-0.199 0.309,-0.255 0.536,-0.081l0.482,0.37c0.012,0.008 0.016,0.024 0.006,0.036Zm0.314,-0.392c-0.061,0.08 -0.113,0.133 -0.164,0.174c-0.01,0.009 -0.025,0.014 -0.037,0.004l-0.077,-0.058c-0.012,-0.01 -0.013,-0.026 -0.005,-0.036c0.001,-0.002 0.001,-0.002 0.001,-0.002c0.039,-0.04 0.126,-0.142 0.157,-0.182c0.072,-0.095 0.06,-0.15 -0.002,-0.198c-0.041,-0.031 -0.079,-0.028 -0.174,0.011l-0.192,0.077c-0.135,0.054 -0.218,0.034 -0.293,-0.023c-0.118,-0.091 -0.151,-0.225 0.001,-0.424c0.054,-0.07 0.14,-0.16 0.177,-0.19c0.01,-0.009 0.024,-0.012 0.035,-0.004l0.079,0.061c0.011,0.008 0.014,0.022 0.005,0.033c-0.001,0 -0.001,0 -0.002,0.002c-0.06,0.065 -0.118,0.132 -0.172,0.203c-0.06,0.078 -0.057,0.133 -0.009,0.17c0.035,0.027 0.07,0.025 0.162,-0.015l0.17,-0.074c0.156,-0.067 0.248,-0.046 0.332,0.018c0.108,0.084 0.172,0.239 0.008,0.453Zm-0.12,-1.392c-0.083,-0.011 -0.135,0.044 -0.164,0.081c-0.036,0.046 -0.084,0.131 -0.005,0.233l0.536,0.688c0.002,0.001 0.002,0.001 0.002,0.002l0.001,0.001c0.001,0.001 0,0.002 0.002,0.002c0.01,0.009 0.024,0.006 0.033,-0.005l0.086,-0.114c0.008,-0.009 0.006,-0.024 -0.002,-0.034l-0.524,-0.647c-0.01,-0.012 -0.013,-0.019 -0.004,-0.03c0.008,-0.01 0.015,-0.01 0.03,-0.004l0.762,0.337c0.01,0.006 0.026,0.004 0.033,-0.007l0.087,-0.113c0.008,-0.01 0.007,-0.025 -0.004,-0.033c-0.002,-0.001 -0.004,-0.001 -0.006,-0.003l-0.804,-0.338c-0.021,-0.008 -0.04,-0.014 -0.057,-0.016l-0.002,-0Zm0.63,-0.68l-0.143,0.187l0.649,0.496c0.011,0.01 0.014,0.026 0.004,0.039l-0.08,0.105c-0.01,0.011 -0.026,0.014 -0.039,0.005l-0.648,-0.497l-0.143,0.187c-0.01,0.012 -0.025,0.016 -0.036,0.007l-0.084,-0.065c-0.012,-0.009 -0.013,-0.025 -0.004,-0.037l0.4,-0.522c0.009,-0.013 0.024,-0.016 0.037,-0.007l0.084,0.065c0.012,0.009 0.012,0.024 0.003,0.037Zm0.888,0.228l-0.081,0.106c-0.009,0.012 -0.026,0.014 -0.038,0.005l-0.752,-0.577c-0.012,-0.008 -0.013,-0.025 -0.004,-0.036l0.081,-0.106c0.009,-0.012 0.024,-0.015 0.036,-0.006l0.753,0.577c0.012,0.008 0.014,0.026 0.005,0.037Zm-0.149,-1.402l0.536,0.689c0.08,0.102 0.03,0.186 -0.005,0.232c-0.035,0.046 -0.104,0.116 -0.223,0.066l-0.805,-0.339c-0.002,-0.002 -0.003,-0.001 -0.006,-0.003c-0.011,-0.008 -0.011,-0.022 -0.003,-0.033l0.087,-0.114c0.007,-0.009 0.022,-0.011 0.034,-0.006l0.761,0.337c0.015,0.007 0.022,0.007 0.03,-0.003c0.008,-0.011 0.007,-0.018 -0.004,-0.031l-0.524,-0.647c-0.008,-0.01 -0.01,-0.024 -0.003,-0.034l0.087,-0.113c0.008,-0.011 0.022,-0.014 0.033,-0.005c0.002,0.001 0.002,0.003 0.005,0.004Zm1.195,0.023c-0.021,0.038 -0.043,0.087 -0.14,0.215c-0.107,0.138 -0.227,0.218 -0.409,0.079l-0.373,-0.286c-0.182,-0.14 -0.136,-0.276 -0.03,-0.415c0.098,-0.128 0.139,-0.162 0.17,-0.192c0.015,-0.014 0.024,-0.016 0.039,-0.004l0.069,0.052c0.012,0.009 0.014,0.026 0.005,0.038l-0.167,0.219c-0.047,0.061 -0.044,0.1 0.027,0.154l0.116,0.089l0.222,-0.29c0.008,-0.012 0.026,-0.014 0.037,-0.005l0.077,0.059c0.012,0.009 0.014,0.026 0.006,0.037l-0.222,0.291l0.137,0.105c0.071,0.054 0.109,0.048 0.157,-0.014l0.167,-0.218c0.009,-0.012 0.026,-0.014 0.037,-0.005l0.069,0.052c0.015,0.012 0.017,0.021 0.006,0.039Zm0.806,-0.559l0.109,-0.868c0.015,-0.129 0.11,-0.153 0.167,-0.161c0.058,-0.008 0.156,-0.009 0.205,0.112l0.331,0.81c-0.001,0.002 0.002,0.003 0.001,0.007c0.003,0.013 -0.007,0.024 -0.021,0.025l-0.141,0.019c-0.013,0.002 -0.024,-0.008 -0.029,-0.02l-0.3,-0.778c-0.006,-0.016 -0.011,-0.02 -0.024,-0.019c-0.014,0.002 -0.018,0.008 -0.02,0.025l-0.086,0.83c-0.002,0.012 -0.011,0.025 -0.023,0.026l-0.142,0.019c-0.014,0.001 -0.025,-0.007 -0.027,-0.02c-0,-0.002 0.001,-0.004 0,-0.007Zm-1.048,-0.603l0.69,-0.538c0.102,-0.08 0.186,-0.03 0.233,0.005c0.046,0.035 0.115,0.104 0.065,0.223l-0.339,0.807c-0.001,0.002 -0.001,0.004 -0.002,0.006c-0.009,0.011 -0.023,0.012 -0.034,0.004l-0.114,-0.087c-0.009,-0.008 -0.011,-0.023 -0.006,-0.034l0.338,-0.763c0.006,-0.015 0.007,-0.023 -0.004,-0.03c-0.011,-0.009 -0.017,-0.008 -0.031,0.004l-0.648,0.524c-0.01,0.009 -0.025,0.011 -0.035,0.003l-0.113,-0.087c-0.011,-0.008 -0.014,-0.022 -0.005,-0.033c0.002,-0.002 0.003,-0.002 0.005,-0.004Zm2.217,0.289l-0.538,-0.69c-0.079,-0.103 -0.03,-0.187 0.005,-0.233c0.036,-0.046 0.104,-0.116 0.223,-0.066l0.807,0.34c0.003,0.001 0.004,0.001 0.006,0.002c0.011,0.009 0.012,0.022 0.004,0.033l-0.087,0.114c-0.008,0.01 -0.023,0.012 -0.034,0.007l-0.763,-0.338c-0.015,-0.007 -0.022,-0.007 -0.03,0.004c-0.009,0.01 -0.006,0.017 0.004,0.03l0.525,0.648c0.008,0.01 0.01,0.025 0.002,0.035l-0.087,0.114c-0.008,0.011 -0.022,0.014 -0.033,0.005c-0.002,-0.002 -0.002,-0.004 -0.004,-0.005Zm-2.532,-1.458l0.868,0.108c0.129,0.016 0.154,0.111 0.162,0.168c0.007,0.058 0.008,0.155 -0.112,0.204l-0.81,0.331c-0.003,0 -0.004,0.002 -0.007,0.002c-0.013,0.002 -0.024,-0.007 -0.025,-0.021l-0.02,-0.142c-0.001,-0.012 0.008,-0.024 0.02,-0.028l0.778,-0.301c0.016,-0.006 0.021,-0.011 0.019,-0.024c-0.002,-0.014 -0.008,-0.017 -0.024,-0.019l-0.83,-0.087c-0.013,-0.001 -0.025,-0.01 -0.027,-0.022l-0.018,-0.142c-0.002,-0.014 0.006,-0.026 0.019,-0.027c0.003,-0.001 0.004,0 0.007,-0Zm1.671,0.069c0.075,0.058 0.089,0.165 0.032,0.24c-0.058,0.075 -0.165,0.089 -0.241,0.032c-0.074,-0.058 -0.089,-0.165 -0.031,-0.24c0.057,-0.075 0.165,-0.09 0.24,-0.032Zm1.465,0.34l-0.868,-0.108c-0.129,-0.015 -0.154,-0.11 -0.162,-0.168c-0.008,-0.058 -0.008,-0.156 0.112,-0.204l0.81,-0.331c0.003,-0.001 0.004,-0.002 0.007,-0.002c0.013,-0.002 0.024,0.007 0.025,0.021l0.02,0.142c0.001,0.012 -0.008,0.024 -0.02,0.028l-0.778,0.301c-0.016,0.006 -0.021,0.011 -0.019,0.024c0.002,0.014 0.008,0.017 0.024,0.019l0.83,0.087c0.013,0.002 0.025,0.01 0.027,0.023l0.018,0.141c0.002,0.014 -0.006,0.026 -0.019,0.027c-0.003,0.001 -0.004,-0 -0.007,0Zm-2.532,-1.458l0.537,0.691c0.08,0.102 0.031,0.186 -0.004,0.232c-0.035,0.046 -0.105,0.116 -0.223,0.066l-0.807,-0.339c-0.003,-0.001 -0.004,-0.002 -0.007,-0.003c-0.01,-0.008 -0.011,-0.023 -0.003,-0.033l0.087,-0.114c0.008,-0.01 0.022,-0.012 0.034,-0.006l0.763,0.337c0.015,0.007 0.022,0.007 0.03,-0.004c0.009,-0.01 0.006,-0.017 -0.004,-0.03l-0.525,-0.648c-0.008,-0.01 -0.01,-0.026 -0.002,-0.035l0.087,-0.113c0.008,-0.011 0.022,-0.014 0.033,-0.006c0.002,0.002 0.002,0.004 0.004,0.005Zm2.217,0.289l-0.69,0.538c-0.102,0.08 -0.187,0.03 -0.233,-0.005c-0.046,-0.035 -0.115,-0.104 -0.065,-0.223l0.339,-0.807c0.001,-0.002 0.001,-0.004 0.002,-0.006c0.009,-0.011 0.024,-0.011 0.034,-0.004l0.114,0.088c0.009,0.007 0.011,0.022 0.006,0.033l-0.338,0.763c-0.007,0.016 -0.007,0.023 0.004,0.031c0.01,0.008 0.017,0.006 0.031,-0.004l0.648,-0.525c0.01,-0.008 0.024,-0.01 0.035,-0.003l0.113,0.087c0.011,0.008 0.014,0.022 0.005,0.033c-0.002,0.002 -0.003,0.002 -0.005,0.004Zm-1.048,-0.604l-0.109,0.869c-0.015,0.129 -0.11,0.154 -0.167,0.161c-0.058,0.008 -0.156,0.008 -0.204,-0.111l-0.332,-0.811c0,-0.002 -0.002,-0.003 -0.001,-0.006c-0.003,-0.013 0.007,-0.024 0.021,-0.026l0.141,-0.019c0.012,-0.002 0.024,0.008 0.029,0.02l0.3,0.778c0.006,0.016 0.011,0.021 0.024,0.018c0.014,-0.001 0.017,-0.007 0.02,-0.024l0.086,-0.83c0.002,-0.012 0.011,-0.024 0.023,-0.026l0.142,-0.019c0.013,-0.002 0.025,0.006 0.027,0.02c0,0.003 -0.001,0.004 -0,0.006Z" style="fill:#01676c;"/><path d="M40.623,20.489c-0.426,-0.443 -0.998,-0.716 -1.611,-0.769c-0.675,-0.053 -1.343,0.178 -1.842,0.638c-0.556,0.503 -0.88,1.214 -0.894,1.964l-0.277,14.023c-1.645,0.859 -2.701,2.546 -2.757,4.401c-0.05,1.406 0.473,2.774 1.448,3.788c1.953,2.031 5.218,2.125 7.284,0.21l0.068,-0.065c2.052,-1.976 2.116,-5.289 0.142,-7.343c-0.335,-0.348 -0.717,-0.648 -1.135,-0.891l0.279,-14.157c0.015,-0.669 -0.239,-1.318 -0.705,-1.799Zm-0.339,1.778l-0.286,14.505c-0.002,0.193 0.103,0.372 0.272,0.465c0.414,0.21 0.79,0.488 1.111,0.823c1.577,1.64 1.525,4.287 -0.115,5.864c-0.819,0.787 -1.927,1.204 -3.061,1.153c-2.216,-0.169 -3.94,-2.058 -3.904,-4.28c0.044,-1.578 0.991,-2.998 2.431,-3.645c0.173,-0.079 0.291,-0.248 0.305,-0.438l0.283,-14.372c0.012,-0.461 0.212,-0.898 0.553,-1.207c0.285,-0.263 0.666,-0.397 1.052,-0.372c0.359,0.032 0.694,0.193 0.943,0.452c0.274,0.281 0.424,0.66 0.416,1.052Z" style="fill:#01676c;fill-rule:nonzero;"/><path d="M38.206,27.399l-0.254,10.823c-0.52,0.097 -1.001,0.345 -1.384,0.713c-1.069,1.027 -1.108,2.746 -0.088,3.807c1.02,1.062 2.739,1.09 3.808,0.062c1.069,-1.027 1.109,-2.746 0.089,-3.807c-0.365,-0.38 -0.835,-0.643 -1.35,-0.757l0.248,-10.824c-0.015,-0.114 -0.066,-0.221 -0.146,-0.304c-0.204,-0.213 -0.549,-0.218 -0.764,-0.012c-0.083,0.08 -0.139,0.185 -0.159,0.299Z" style="fill:#01676c;fill-rule:nonzero;"/><path d="M12.254,9.914c1.499,1.246 1.706,3.492 0.461,4.991c-1.246,1.499 -3.492,1.706 -4.991,0.46c-1.499,-1.246 -1.706,-3.491 -0.46,-4.99c1.245,-1.499 3.491,-1.707 4.99,-0.461Zm1.823,6.123c-0.207,0.25 -0.173,0.624 0.077,0.832l5.224,4.341c0.25,0.208 0.624,0.173 0.832,-0.077c0.207,-0.25 0.173,-0.624 -0.077,-0.832l-5.224,-4.341c-0.25,-0.207 -0.624,-0.173 -0.832,0.077Zm-0.604,3.453c-0.279,0.152 -0.415,0.5 -0.263,0.779l2.02,3.945c0.152,0.28 0.5,0.415 0.779,0.264c0.08,-0.05 0.14,-0.076 0.197,-0.144c0.151,-0.182 0.169,-0.435 0.067,-0.636l-2.002,-3.967c-0.151,-0.28 -0.518,-0.393 -0.798,-0.241Zm7.575,-13.134l-3.945,2.02c-0.28,0.152 -0.415,0.5 -0.264,0.78c0.152,0.279 0.5,0.415 0.78,0.263l3.944,-2.021c0.08,-0.049 0.14,-0.075 0.197,-0.143c0.151,-0.182 0.169,-0.436 0.067,-0.636c-0.133,-0.302 -0.5,-0.415 -0.779,-0.263Zm-2.969,8.054c-0.302,-0.098 -0.642,0.08 -0.718,0.401c-0.098,0.303 0.081,0.643 0.402,0.718l4.248,1.265c0.238,0.083 0.48,-0.023 0.612,-0.182c0.057,-0.069 0.072,-0.133 0.106,-0.22c0.098,-0.303 -0.08,-0.643 -0.402,-0.718l-4.248,-1.264Zm-10.262,5.602c-0.302,-0.098 -0.642,0.08 -0.717,0.402l-1.265,4.248c-0.098,0.302 0.08,0.642 0.402,0.717c0.238,0.083 0.48,-0.023 0.612,-0.182c0.057,-0.068 0.072,-0.132 0.105,-0.219l1.265,-4.248c0.098,-0.303 -0.08,-0.643 -0.402,-0.718Zm-1.149,-2.452c0.208,-0.25 0.173,-0.625 -0.076,-0.832c-0.25,-0.208 -0.624,-0.173 -0.832,0.077l-4.341,5.223c-0.208,0.25 -0.173,0.624 0.077,0.832c0.249,0.208 0.624,0.173 0.831,-0.077l4.341,-5.223Zm10.983,-15.064l-4.341,5.224c-0.208,0.25 -0.173,0.624 0.077,0.831c0.249,0.208 0.624,0.174 0.831,-0.076l4.341,-5.224c0.208,-0.25 0.174,-0.624 -0.076,-0.832c-0.25,-0.207 -0.624,-0.173 -0.832,0.077Zm-7.175,15.425c-0.332,0.031 -0.559,0.303 -0.528,0.636l0.625,6.779c0.031,0.332 0.304,0.559 0.636,0.528c0.167,-0.015 0.307,-0.091 0.401,-0.205c0.094,-0.113 0.143,-0.264 0.128,-0.431l-0.626,-6.778c-0.008,-0.314 -0.303,-0.56 -0.636,-0.529Zm5.342,-6.427c-0.333,0.03 -0.559,0.303 -0.529,0.636c0.031,0.332 0.304,0.559 0.636,0.528l6.76,-0.603c0.167,-0.015 0.306,-0.091 0.401,-0.204c0.094,-0.114 0.143,-0.265 0.128,-0.432c-0.031,-0.332 -0.304,-0.559 -0.636,-0.528l-6.76,0.603Z" style="fill:#01676c;fill-rule:nonzero;"/></g></svg>