<?xml version="1.0" encoding="UTF-8" standalone="no"?><!DOCTYPE svg PUBLIC "-//W3C//DTD SVG 1.1//EN" "http://www.w3.org/Graphics/SVG/1.1/DTD/svg11.dtd"><svg width="100%" height="100%" viewBox="0 0 116 45" version="1.1" xmlns="http://www.w3.org/2000/svg" xmlns:xlink="http://www.w3.org/1999/xlink" xml:space="preserve" xmlns:serif="http://www.serif.com/" style="fill-rule:evenodd;clip-rule:evenodd;stroke-linejoin:round;"><path d="M81.923,10.077c1.32,-0 2.564,0.651 3.093,1.62c0.234,0.428 0.306,0.864 0.213,1.293c-0.169,0.782 -0.862,1.476 -1.808,1.813l-80.148,28.528c-0.06,0.021 -0.122,0.032 -0.189,0.032c-0.201,0 -0.349,-0.099 -0.386,-0.166c-0,-0 -1.64,-3.001 -2.182,-3.993c-0.076,-0.138 -0.038,-0.312 0.088,-0.408c4.983,-1.784 80.003,-28.496 80.003,-28.496c0.417,-0.148 0.86,-0.223 1.316,-0.223m-0,-0.459c-0.464,0 -0.933,0.076 -1.382,0.237l-80.148,28.527c-0.33,0.118 -0.475,0.438 -0.325,0.712l2.403,4.397c0.111,0.209 0.358,0.33 0.613,0.33c0.086,-0 0.173,-0.014 0.257,-0.042l80.146,-28.53c1.785,-0.635 2.571,-2.357 1.757,-3.846c-0.609,-1.115 -1.941,-1.785 -3.321,-1.785" style="fill:#787878;fill-rule:nonzero;"/><path d="M83.487,15.249l-80.148,28.529c-0.329,0.117 -0.719,-0.011 -0.87,-0.287l-2.401,-4.397c-0.042,-0.076 -0.061,-0.155 -0.06,-0.231l-0.008,0.652c-0.001,0.076 0.019,0.156 0.059,0.232l2.402,4.396c0.151,0.277 0.541,0.404 0.87,0.287l80.149,-28.529c1.293,-0.46 2.064,-1.493 2.077,-2.595l0.008,-0.652c-0.014,1.102 -0.783,2.135 -2.078,2.595" style="fill:#787878;fill-rule:nonzero;"/><path d="M22.562,32.838c0.15,-0.054 0.267,-0.08 0.375,-0.095c0.022,-0.004 0.048,0.002 0.06,0.023l0.078,0.127c0.012,0.02 0.002,0.04 -0.018,0.047l-0.004,0.002c-0.086,0.019 -0.293,0.082 -0.367,0.109c-0.178,0.064 -0.199,0.14 -0.136,0.243c0.042,0.069 0.102,0.092 0.277,0.114l0.351,0.045c0.247,0.031 0.359,0.117 0.435,0.241c0.119,0.196 0.077,0.383 -0.297,0.517c-0.133,0.047 -0.328,0.095 -0.405,0.106c-0.022,0.003 -0.046,-0.003 -0.057,-0.021l-0.08,-0.132c-0.011,-0.018 -0.005,-0.037 0.015,-0.045l0.004,-0c0.139,-0.037 0.276,-0.078 0.407,-0.123c0.148,-0.054 0.182,-0.122 0.134,-0.202c-0.036,-0.059 -0.091,-0.083 -0.261,-0.099l-0.314,-0.034c-0.287,-0.03 -0.415,-0.122 -0.5,-0.262c-0.109,-0.18 -0.099,-0.418 0.303,-0.561" style="fill:#777;fill-rule:nonzero;"/><path d="M20.916,33.455c0.059,-0.032 0.127,-0.076 0.366,-0.161c0.261,-0.093 0.503,-0.103 0.687,0.198l0.377,0.621c0.184,0.303 0.019,0.437 -0.242,0.531c-0.24,0.085 -0.328,0.096 -0.398,0.111c-0.032,0.006 -0.047,0.002 -0.062,-0.023l-0.07,-0.115c-0.012,-0.018 -0.003,-0.041 0.019,-0.049l0.41,-0.146c0.116,-0.042 0.137,-0.092 0.065,-0.21l-0.116,-0.192l-0.545,0.194c-0.022,0.008 -0.05,-0.002 -0.062,-0.021l-0.078,-0.128c-0.012,-0.019 -0.003,-0.042 0.019,-0.05l0.545,-0.194l-0.14,-0.229c-0.071,-0.118 -0.135,-0.139 -0.252,-0.097l-0.41,0.147c-0.022,0.007 -0.05,-0.002 -0.062,-0.021l-0.069,-0.114c-0.015,-0.025 -0.01,-0.038 0.018,-0.052" style="fill:#777;fill-rule:nonzero;"/><path d="M19.434,33.97l0.207,-0.073c0.023,-0.008 0.046,0.003 0.058,0.022l0.488,0.802c0.123,0.202 0.254,0.256 0.446,0.187c0.101,-0.036 0.207,-0.083 0.269,-0.113l-0.653,-1.072c-0.011,-0.02 -0.005,-0.042 0.018,-0.049l0.202,-0.073c0.023,-0.008 0.048,0.002 0.06,0.022l0.717,1.179c0.041,0.065 0.028,0.09 -0.029,0.121c-0.1,0.053 -0.309,0.146 -0.426,0.188c-0.374,0.133 -0.655,0.088 -0.885,-0.29l-0.488,-0.801c-0.012,-0.02 -0.006,-0.042 0.016,-0.05" style="fill:#777;fill-rule:nonzero;"/><path d="M18.676,34.223c0.151,-0.053 0.267,-0.08 0.375,-0.095c0.023,-0.003 0.048,0.003 0.06,0.022l0.078,0.128c0.012,0.02 0.002,0.04 -0.018,0.048l-0.004,0.001c-0.085,0.02 -0.292,0.083 -0.366,0.109c-0.179,0.064 -0.198,0.139 -0.136,0.244c0.043,0.069 0.102,0.09 0.277,0.113l0.351,0.046c0.246,0.031 0.359,0.115 0.435,0.24c0.119,0.195 0.077,0.384 -0.297,0.517c-0.132,0.047 -0.328,0.095 -0.405,0.105c-0.023,0.005 -0.046,-0.003 -0.057,-0.02l-0.081,-0.132c-0.01,-0.017 -0.005,-0.037 0.015,-0.044l0.004,-0.001c0.14,-0.037 0.277,-0.077 0.407,-0.124c0.149,-0.053 0.183,-0.121 0.135,-0.202c-0.036,-0.058 -0.092,-0.081 -0.261,-0.099l-0.315,-0.033c-0.286,-0.03 -0.414,-0.123 -0.499,-0.263c-0.11,-0.18 -0.1,-0.417 0.302,-0.56" style="fill:#777;fill-rule:nonzero;"/><path d="M16.444,36.393l0.352,-0.126l-0.657,-1.08c-0.011,-0.018 -0.003,-0.042 0.019,-0.049l0.199,-0.071c0.022,-0.007 0.05,0.002 0.062,0.021l0.657,1.08l0.351,-0.126c0.022,-0.008 0.048,-0.002 0.06,0.018l0.085,0.14c0.012,0.02 0.002,0.04 -0.019,0.048l-0.984,0.35c-0.021,0.008 -0.048,0.001 -0.06,-0.019l-0.085,-0.14c-0.012,-0.02 -0.002,-0.038 0.02,-0.046" style="fill:#777;fill-rule:nonzero;"/><path d="M15.231,35.469l0.199,-0.072c0.022,-0.007 0.05,0.002 0.061,0.021l0.762,1.253c0.012,0.019 0.003,0.04 -0.019,0.048l-0.2,0.07c-0.021,0.009 -0.048,0 -0.06,-0.019l-0.762,-1.252c-0.012,-0.019 -0.003,-0.042 0.019,-0.049" style="fill:#777;fill-rule:nonzero;"/><path d="M14.485,37.294l-0.348,-1.231c-0.053,-0.183 0.082,-0.251 0.169,-0.282c0.086,-0.031 0.241,-0.066 0.389,0.081l1.008,0.998c0.003,0.004 0.006,0.004 0.008,0.008c0.01,0.018 0.002,0.036 -0.018,0.043l-0.213,0.076c-0.018,0.007 -0.043,-0.002 -0.056,-0.017l-0.942,-0.964c-0.019,-0.019 -0.03,-0.024 -0.05,-0.017c-0.019,0.008 -0.022,0.016 -0.014,0.04l0.358,1.172c0.006,0.017 -0.001,0.038 -0.02,0.044l-0.213,0.076c-0.019,0.008 -0.043,0.001 -0.054,-0.017c-0.002,-0.004 -0.001,-0.007 -0.004,-0.01" style="fill:#777;fill-rule:nonzero;"/><path d="M18.023,34.521l0.348,1.233c0.053,0.183 -0.082,0.249 -0.169,0.28c-0.086,0.031 -0.241,0.067 -0.389,-0.082l-1.008,-0.996c-0.003,-0.004 -0.006,-0.005 -0.008,-0.009c-0.01,-0.017 -0.002,-0.036 0.018,-0.043l0.213,-0.075c0.018,-0.007 0.043,0.001 0.056,0.016l0.942,0.964c0.019,0.02 0.03,0.025 0.05,0.017c0.02,-0.006 0.022,-0.016 0.015,-0.039l-0.359,-1.173c-0.006,-0.018 0.002,-0.037 0.02,-0.044l0.213,-0.076c0.02,-0.006 0.043,0 0.054,0.018c0.003,0.003 0.001,0.006 0.004,0.009" style="fill:#777;fill-rule:nonzero;"/><path d="M12.654,36.4c0.058,-0.031 0.127,-0.076 0.367,-0.161c0.261,-0.092 0.501,-0.103 0.686,0.199l0.377,0.621c0.184,0.302 0.019,0.436 -0.242,0.53c-0.239,0.085 -0.328,0.097 -0.398,0.111c-0.032,0.007 -0.047,0.002 -0.063,-0.023l-0.069,-0.114c-0.012,-0.019 -0.003,-0.042 0.019,-0.05l0.41,-0.146c0.117,-0.041 0.137,-0.092 0.066,-0.209l-0.117,-0.192l-0.545,0.193c-0.022,0.008 -0.049,-0.001 -0.061,-0.021l-0.078,-0.127c-0.012,-0.02 -0.004,-0.042 0.018,-0.051l0.545,-0.194l-0.14,-0.229c-0.071,-0.117 -0.135,-0.138 -0.252,-0.096l-0.41,0.146c-0.022,0.007 -0.049,-0.002 -0.061,-0.021l-0.069,-0.114c-0.016,-0.025 -0.011,-0.038 0.017,-0.052" style="fill:#777;fill-rule:nonzero;"/><path d="M10.114,40.611l-0.299,-1.245c-0.045,-0.185 0.081,-0.249 0.162,-0.277c0.081,-0.029 0.225,-0.059 0.361,0.093l0.916,1.028c0.001,0.004 0.004,0.005 0.007,0.008c0.009,0.019 0.001,0.037 -0.018,0.044l-0.199,0.07c-0.017,0.006 -0.04,-0.003 -0.053,-0.018l-0.855,-0.995c-0.017,-0.019 -0.027,-0.025 -0.045,-0.018c-0.018,0.007 -0.021,0.015 -0.015,0.04l0.31,1.185c0.005,0.018 -0.003,0.037 -0.019,0.043l-0.2,0.07c-0.019,0.006 -0.04,-0.001 -0.05,-0.019c-0.002,-0.003 -0.001,-0.006 -0.003,-0.009" style="fill:#777;fill-rule:nonzero;"/><path d="M9.062,36.108l0.299,1.245c0.045,0.184 -0.082,0.249 -0.163,0.276c-0.08,0.029 -0.224,0.06 -0.36,-0.092l-0.916,-1.028c-0.001,-0.005 -0.004,-0.005 -0.007,-0.009c-0.009,-0.018 -0.001,-0.036 0.018,-0.043l0.199,-0.07c0.017,-0.006 0.04,0.003 0.053,0.018l0.855,0.994c0.017,0.02 0.026,0.025 0.045,0.019c0.018,-0.007 0.021,-0.016 0.015,-0.04l-0.31,-1.185c-0.005,-0.018 0.003,-0.037 0.019,-0.043l0.2,-0.07c0.019,-0.007 0.04,0.001 0.05,0.019c0.002,0.003 0.001,0.006 0.003,0.009" style="fill:#777;fill-rule:nonzero;"/><path d="M12.009,38.162l-1.338,0.116c-0.198,0.018 -0.285,-0.106 -0.327,-0.184c-0.041,-0.078 -0.093,-0.214 0.058,-0.319l1.02,-0.712c0.004,-0.001 0.005,-0.004 0.009,-0.004c0.019,-0.008 0.039,0.003 0.049,0.02l0.103,0.193c0.009,0.016 0.001,0.036 -0.014,0.045l-0.99,0.66c-0.019,0.013 -0.024,0.021 -0.014,0.039c0.01,0.018 0.02,0.021 0.046,0.019l1.27,-0.134c0.019,-0.002 0.041,0.007 0.05,0.024l0.103,0.192c0.01,0.018 0.005,0.037 -0.014,0.043c-0.004,0.002 -0.007,0 -0.011,0.002" style="fill:#777;fill-rule:nonzero;"/><path d="M7.167,38.557l1.338,-0.117c0.198,-0.018 0.285,0.107 0.326,0.185c0.042,0.078 0.094,0.214 -0.057,0.319l-1.02,0.711c-0.005,0.002 -0.005,0.004 -0.009,0.005c-0.019,0.008 -0.04,-0.003 -0.05,-0.021l-0.102,-0.192c-0.009,-0.016 -0.001,-0.036 0.014,-0.046l0.989,-0.659c0.02,-0.014 0.025,-0.022 0.015,-0.04c-0.01,-0.017 -0.02,-0.021 -0.046,-0.018l-1.27,0.133c-0.019,0.003 -0.042,-0.006 -0.05,-0.023l-0.103,-0.192c-0.01,-0.018 -0.005,-0.037 0.014,-0.043c0.004,-0.002 0.007,-0 0.011,-0.002" style="fill:#777;fill-rule:nonzero;"/><path d="M11.672,39.811l-1.157,-0.797c-0.172,-0.118 -0.144,-0.251 -0.117,-0.327c0.028,-0.074 0.093,-0.193 0.296,-0.16l1.369,0.225c0.004,0.001 0.006,0 0.011,0.002c0.019,0.009 0.028,0.028 0.022,0.045l-0.068,0.186c-0.006,0.015 -0.028,0.023 -0.046,0.019l-1.305,-0.236c-0.026,-0.005 -0.036,-0.003 -0.042,0.014c-0.007,0.018 -0.001,0.027 0.021,0.042l1.118,0.743c0.016,0.011 0.028,0.031 0.022,0.047l-0.069,0.186c-0.006,0.017 -0.026,0.025 -0.045,0.017c-0.005,-0.001 -0.006,-0.004 -0.01,-0.006" style="fill:#777;fill-rule:nonzero;"/><path d="M7.504,36.907l1.157,0.798c0.173,0.118 0.144,0.251 0.116,0.326c-0.027,0.075 -0.092,0.194 -0.295,0.16l-1.369,-0.224c-0.004,-0.002 -0.007,-0 -0.011,-0.002c-0.02,-0.009 -0.029,-0.028 -0.023,-0.045l0.069,-0.186c0.006,-0.016 0.027,-0.023 0.046,-0.019l1.305,0.236c0.026,0.005 0.036,0.003 0.042,-0.015c0.007,-0.017 0.001,-0.026 -0.022,-0.041l-1.117,-0.743c-0.017,-0.012 -0.028,-0.032 -0.022,-0.048l0.068,-0.185c0.007,-0.018 0.027,-0.025 0.047,-0.017c0.004,0.001 0.005,0.004 0.009,0.005" style="fill:#777;fill-rule:nonzero;"/><path d="M10.928,36.627l-0.735,0.964c-0.108,0.143 -0.259,0.1 -0.346,0.065c-0.086,-0.036 -0.225,-0.11 -0.214,-0.292l0.074,-1.23c0.002,-0.004 0,-0.005 0.002,-0.009c0.006,-0.018 0.027,-0.024 0.047,-0.016l0.214,0.087c0.018,0.007 0.028,0.028 0.027,0.044l-0.096,1.17c-0.002,0.024 0.002,0.033 0.022,0.041c0.02,0.009 0.029,0.004 0.042,-0.014l0.68,-0.933c0.01,-0.015 0.031,-0.022 0.05,-0.015l0.213,0.087c0.02,0.007 0.032,0.027 0.025,0.045c-0.001,0.003 -0.003,0.004 -0.005,0.006" style="fill:#777;fill-rule:nonzero;"/><path d="M8.248,40.091l0.735,-0.963c0.108,-0.143 0.259,-0.1 0.345,-0.065c0.087,0.035 0.226,0.11 0.215,0.292l-0.074,1.23c-0.002,0.004 -0,0.005 -0.002,0.009c-0.006,0.017 -0.027,0.024 -0.047,0.015l-0.213,-0.086c-0.018,-0.007 -0.029,-0.029 -0.028,-0.045l0.096,-1.169c0.002,-0.024 -0.002,-0.033 -0.022,-0.042c-0.02,-0.008 -0.029,-0.003 -0.042,0.015l-0.681,0.933c-0.009,0.014 -0.03,0.022 -0.048,0.015l-0.214,-0.087c-0.02,-0.008 -0.032,-0.027 -0.026,-0.045c0.002,-0.003 0.004,-0.004 0.006,-0.007" style="fill:#777;fill-rule:nonzero;"/><path d="M9.351,38.444c-0.068,-0.128 -0.015,-0.268 0.116,-0.314c0.132,-0.046 0.293,0.018 0.361,0.146c0.068,0.127 0.016,0.268 -0.115,0.314c-0.132,0.046 -0.294,-0.02 -0.362,-0.146" style="fill:#777;fill-rule:nonzero;"/><path d="M95.312,4.976c-0.049,-0.006 -0.099,-0.002 -0.144,0.013l-10.348,3.69c-0.179,0.064 -0.231,0.294 -0.115,0.514l2.136,4.065c0.086,0.165 0.242,0.277 0.39,0.296c0.05,0.006 0.099,0.003 0.145,-0.013l10.348,-3.689c0.18,-0.065 0.231,-0.295 0.116,-0.515l-2.137,-4.065c-0.087,-0.165 -0.242,-0.277 -0.391,-0.296" style="fill:none;fill-rule:nonzero;stroke:#777;stroke-opacity:0.8;stroke-width:0.3px;stroke-dasharray:1.2,0.9,0,0;"/><path d="M87.602,10.477l26.08,-9.331" style="fill:none;fill-rule:nonzero;stroke:#777;stroke-width:0.3px;stroke-dasharray:0.9,0.9,0,0;"/><path d="M86.126,11.124l2.094,-2.252l1.042,2.294l-3.136,-0.042Z" style="fill:#777;"/><path d="M115.642,0.522l-2.282,2.064l-0.839,-2.373l3.121,0.309Z" style="fill:#777;"/><path d="M100.556,8.132c-0.124,-0.018 -0.227,-0.115 -0.258,-0.178l-2.091,-4.066c0.001,0 0.001,0 0.001,0.001c0.013,0.002 0.038,-0.034 0.094,-0.053l10.211,-3.599c0.034,-0.012 0.071,-0.015 0.11,-0.01c0.124,0.018 0.225,0.115 0.258,0.178l2.09,4.065c-0,0 -0,-0 -0.001,-0.001c-0.012,-0.001 -0.038,0.035 -0.093,0.054l-10.21,3.599c-0.034,0.011 -0.072,0.014 -0.111,0.01" style="fill:#fff;fill-rule:nonzero;"/><path d="M108.827,0.597l0,0.001c0.072,0.009 0.135,0.053 0.168,0.116c0.212,0.404 1.4,2.667 1.781,3.394c0.03,0.057 0.034,0.124 0.01,0.183c-0.023,0.059 -0.071,0.106 -0.131,0.128c-1.54,0.547 -9.994,3.555 -9.994,3.555c-0.024,0.008 -0.052,0.011 -0.081,0.006l-0,0c-0.072,-0.009 -0.134,-0.052 -0.168,-0.117c-0.213,-0.408 -1.422,-2.723 -1.813,-3.471c-0.031,-0.058 -0.034,-0.127 -0.01,-0.189c0.025,-0.061 0.074,-0.108 0.137,-0.13c1.568,-0.543 10.022,-3.468 10.022,-3.468c0.023,-0.009 0.051,-0.011 0.079,-0.008m-0.08,-0.594c-0.049,-0.006 -0.099,-0.003 -0.144,0.013l-10.351,3.683c-0.179,0.063 -0.231,0.294 -0.115,0.514l2.133,4.066c0.087,0.166 0.243,0.277 0.39,0.297c0.051,0.006 0.1,0.002 0.145,-0.014l10.351,-3.682c0.179,-0.065 0.23,-0.295 0.116,-0.515l-2.135,-4.065c-0.086,-0.166 -0.241,-0.278 -0.39,-0.297" style="fill:#787878;fill-rule:nonzero;"/><path d="M111.148,4.845l-10.364,3.701c-0.179,0.065 -0.3,-0.118 -0.415,-0.339l-2.241,-4.034c-0.023,-0.059 -0.029,-0.101 -0.053,-0.176l0.019,0.427c0.008,0.059 0.042,0.127 0.073,0.187l2.14,4.089c0.117,0.222 0.357,0.349 0.536,0.285l10.36,-3.704c0.13,-0.046 0.193,-0.181 0.174,-0.336l-0.046,-0.389" style="fill:#787878;fill-rule:nonzero;"/><text x="96.079px" y="24.594px" style="font-family:'Arial-Black', 'Arial', sans-serif;font-weight:900;font-size:10.5px;fill:#787878;">X<tspan x="103.198px " y="24.594px ">3</tspan></text></svg>