<?xml version="1.0" encoding="UTF-8" standalone="no"?>
<!DOCTYPE svg PUBLIC "-//W3C//DTD SVG 1.1//EN" "http://www.w3.org/Graphics/SVG/1.1/DTD/svg11.dtd">
<svg width="100%" height="100%" viewBox="0 0 50 50" version="1.1" xmlns="http://www.w3.org/2000/svg" xmlns:xlink="http://www.w3.org/1999/xlink" xml:space="preserve" xmlns:serif="http://www.serif.com/" style="fill-rule:evenodd;clip-rule:evenodd;stroke-linejoin:round;stroke-miterlimit:2;">
    <g id="Artboard1" transform="matrix(0.746269,0,0,0.757576,0,0)">
        <rect x="0" y="0" width="67" height="66" style="fill:none;"/>
        <g id="guard" transform="matrix(1.05913,0.136218,-0.138282,1.04332,-2.44715,-6.0617)">
            <path d="M53.466,3.758C53.881,3.04 53.634,2.12 52.916,1.705L50.312,0.201C49.593,-0.213 48.673,0.033 48.258,0.752L13.123,61.608C12.708,62.326 12.154,64.331 14.187,65.505C15.969,66.534 17.693,65.718 18.33,64.614L53.466,3.758ZM42.579,17.878C42.516,17.987 42.46,18.061 42.403,18.121C42.392,18.134 42.374,18.142 42.358,18.132L42.253,18.072C42.237,18.062 42.232,18.042 42.241,18.028C42.242,18.026 42.242,18.026 42.243,18.025C42.284,17.971 42.376,17.828 42.407,17.774C42.482,17.644 42.458,17.578 42.373,17.529C42.316,17.496 42.271,17.507 42.158,17.57L41.931,17.697C41.772,17.786 41.666,17.774 41.563,17.715C41.402,17.622 41.339,17.46 41.497,17.188C41.552,17.092 41.645,16.966 41.685,16.923C41.696,16.91 41.713,16.904 41.728,16.912L41.836,16.975C41.851,16.983 41.857,17 41.848,17.015C41.847,17.016 41.847,17.016 41.847,17.018C41.782,17.109 41.72,17.202 41.666,17.298C41.603,17.406 41.615,17.473 41.681,17.511C41.729,17.539 41.773,17.531 41.88,17.466L42.08,17.347C42.262,17.238 42.38,17.25 42.496,17.316C42.643,17.402 42.748,17.585 42.579,17.878ZM43.257,16.657C43.237,16.708 43.217,16.773 43.117,16.947C43.007,17.137 42.87,17.255 42.622,17.112L42.111,16.817C41.862,16.673 41.896,16.496 42.006,16.306C42.107,16.131 42.153,16.082 42.187,16.039C42.203,16.019 42.214,16.016 42.235,16.028L42.328,16.082C42.345,16.091 42.35,16.112 42.341,16.128L42.168,16.427C42.119,16.511 42.131,16.559 42.228,16.615L42.386,16.706L42.615,16.31C42.624,16.293 42.645,16.288 42.661,16.297L42.766,16.358C42.782,16.367 42.788,16.388 42.778,16.404L42.549,16.801L42.738,16.91C42.835,16.965 42.882,16.952 42.931,16.867L43.103,16.568C43.112,16.552 43.133,16.547 43.149,16.556L43.243,16.61C43.263,16.622 43.266,16.633 43.257,16.657ZM43.885,15.588L43.798,15.739C43.789,15.755 43.77,15.758 43.754,15.748L43.094,15.367C42.927,15.271 42.826,15.291 42.745,15.431C42.703,15.504 42.662,15.588 42.64,15.64L43.522,16.149C43.539,16.159 43.545,16.178 43.536,16.194L43.45,16.342C43.441,16.358 43.421,16.362 43.405,16.353L42.435,15.793C42.381,15.761 42.377,15.738 42.396,15.688C42.43,15.602 42.509,15.435 42.558,15.35C42.715,15.078 42.901,14.983 43.212,15.163L43.872,15.544C43.888,15.553 43.895,15.572 43.885,15.588ZM44.212,15.05C44.149,15.159 44.093,15.233 44.036,15.293C44.025,15.306 44.007,15.314 43.991,15.304L43.885,15.244C43.869,15.234 43.865,15.214 43.874,15.2C43.875,15.198 43.875,15.198 43.875,15.197C43.916,15.142 44.008,15 44.04,14.946C44.115,14.816 44.091,14.749 44.006,14.7C43.949,14.668 43.903,14.678 43.791,14.742L43.564,14.868C43.405,14.958 43.299,14.946 43.196,14.887C43.035,14.794 42.972,14.632 43.129,14.36C43.185,14.264 43.277,14.138 43.318,14.095C43.329,14.082 43.346,14.076 43.361,14.084L43.469,14.147C43.484,14.155 43.49,14.172 43.481,14.187C43.48,14.188 43.48,14.188 43.479,14.19C43.415,14.281 43.353,14.374 43.298,14.47C43.236,14.578 43.248,14.645 43.314,14.683C43.362,14.711 43.405,14.703 43.513,14.638L43.712,14.519C43.895,14.41 44.013,14.422 44.128,14.488C44.276,14.574 44.381,14.757 44.212,15.05ZM43.837,13.337C43.731,13.338 43.676,13.414 43.646,13.465C43.609,13.528 43.562,13.641 43.677,13.755L44.456,14.525C44.458,14.525 44.458,14.526 44.459,14.527L44.46,14.528C44.461,14.529 44.461,14.53 44.463,14.53C44.477,14.539 44.494,14.533 44.503,14.518L44.592,14.363C44.6,14.35 44.595,14.332 44.584,14.321L43.827,13.601C43.812,13.587 43.808,13.579 43.817,13.564C43.825,13.55 43.834,13.549 43.854,13.554L44.856,13.85C44.87,13.855 44.889,13.85 44.896,13.836L44.986,13.681C44.994,13.667 44.991,13.649 44.976,13.641C44.973,13.639 44.971,13.64 44.968,13.638L43.912,13.348C43.885,13.341 43.861,13.337 43.839,13.337L43.837,13.337ZM44.51,12.389L44.362,12.645L45.25,13.157C45.266,13.167 45.272,13.187 45.262,13.204L45.179,13.348C45.169,13.364 45.149,13.37 45.132,13.361L44.244,12.848L44.097,13.104C44.087,13.12 44.069,13.127 44.053,13.118L43.938,13.051C43.922,13.042 43.918,13.022 43.927,13.006L44.34,12.291C44.349,12.274 44.368,12.268 44.385,12.277L44.5,12.344C44.516,12.353 44.519,12.372 44.51,12.389ZM45.652,12.529L45.568,12.674C45.559,12.69 45.538,12.695 45.522,12.686L44.492,12.091C44.476,12.082 44.472,12.062 44.481,12.046L44.565,11.901C44.574,11.885 44.593,11.879 44.609,11.888L45.639,12.483C45.656,12.492 45.661,12.513 45.652,12.529ZM45.238,10.809L46.017,11.579C46.133,11.693 46.085,11.805 46.049,11.868C46.012,11.931 45.938,12.029 45.782,11.986L44.726,11.696C44.723,11.694 44.721,11.695 44.718,11.693C44.703,11.685 44.7,11.667 44.708,11.652L44.798,11.497C44.805,11.484 44.824,11.479 44.839,11.484L45.841,11.779C45.861,11.785 45.869,11.784 45.877,11.77C45.886,11.755 45.883,11.747 45.868,11.733L45.111,11.013C45.099,11.002 45.094,10.984 45.102,10.971L45.191,10.816C45.2,10.801 45.217,10.795 45.232,10.804C45.234,10.805 45.235,10.808 45.238,10.809ZM46.729,10.643C46.709,10.694 46.689,10.759 46.589,10.933C46.479,11.123 46.343,11.241 46.094,11.098L45.583,10.803C45.334,10.659 45.369,10.482 45.478,10.292C45.579,10.117 45.625,10.068 45.659,10.025C45.675,10.005 45.686,10.002 45.707,10.014L45.801,10.068C45.817,10.077 45.822,10.098 45.813,10.114L45.641,10.413C45.592,10.497 45.603,10.545 45.7,10.601L45.858,10.692L46.087,10.296C46.096,10.279 46.117,10.274 46.133,10.283L46.238,10.344C46.254,10.353 46.26,10.374 46.251,10.39L46.022,10.787L46.21,10.896C46.307,10.951 46.354,10.938 46.403,10.853L46.575,10.554C46.585,10.538 46.605,10.533 46.621,10.542L46.715,10.596C46.736,10.608 46.739,10.619 46.729,10.643ZM47.641,9.817L47.635,8.72C47.633,8.557 47.747,8.511 47.817,8.492C47.888,8.473 48.009,8.456 48.09,8.598L48.633,9.552C48.633,9.555 48.636,9.556 48.636,9.56C48.641,9.576 48.631,9.591 48.614,9.595L48.441,9.642C48.426,9.646 48.41,9.636 48.402,9.622L47.902,8.703C47.892,8.684 47.885,8.679 47.869,8.683C47.852,8.688 47.849,8.696 47.849,8.717L47.876,9.763C47.876,9.779 47.867,9.796 47.852,9.8L47.679,9.846C47.662,9.85 47.646,9.842 47.642,9.826C47.641,9.823 47.642,9.821 47.641,9.817ZM46.239,9.237L47.01,8.456C47.124,8.34 47.237,8.388 47.3,8.424C47.363,8.46 47.461,8.535 47.418,8.691L47.127,9.75C47.126,9.753 47.126,9.755 47.125,9.758C47.116,9.773 47.099,9.776 47.084,9.768L46.928,9.678C46.915,9.67 46.91,9.652 46.915,9.637L47.211,8.633C47.217,8.613 47.216,8.604 47.201,8.596C47.187,8.587 47.179,8.59 47.164,8.606L46.443,9.364C46.432,9.376 46.414,9.381 46.4,9.373L46.245,9.283C46.23,9.275 46.224,9.258 46.233,9.243C46.235,9.24 46.237,9.24 46.239,9.237ZM49.044,9.236L48.263,8.465C48.147,8.351 48.195,8.238 48.231,8.175C48.268,8.112 48.342,8.014 48.498,8.057L49.557,8.348C49.56,8.349 49.562,8.349 49.565,8.35C49.58,8.359 49.583,8.376 49.575,8.391L49.485,8.547C49.477,8.56 49.459,8.565 49.444,8.56L48.44,8.264C48.42,8.258 48.411,8.259 48.403,8.274C48.394,8.288 48.398,8.296 48.413,8.311L49.171,9.032C49.183,9.043 49.188,9.061 49.18,9.075L49.09,9.23C49.082,9.245 49.065,9.251 49.05,9.242C49.047,9.24 49.047,9.238 49.044,9.236ZM45.657,7.834L46.755,7.828C46.918,7.826 46.964,7.94 46.983,8.01C47.002,8.081 47.019,8.202 46.877,8.282L45.923,8.826C45.92,8.826 45.919,8.828 45.915,8.829C45.899,8.834 45.884,8.824 45.88,8.807L45.833,8.634C45.829,8.619 45.839,8.603 45.853,8.595L46.772,8.095C46.791,8.085 46.796,8.078 46.791,8.062C46.787,8.045 46.779,8.042 46.758,8.042L45.712,8.069C45.696,8.069 45.679,8.06 45.675,8.045L45.629,7.872C45.625,7.855 45.632,7.839 45.649,7.835C45.652,7.834 45.654,7.835 45.657,7.834ZM47.747,7.649C47.85,7.708 47.885,7.839 47.826,7.942C47.766,8.045 47.635,8.08 47.532,8.021C47.43,7.961 47.394,7.83 47.454,7.727C47.513,7.625 47.644,7.589 47.747,7.649ZM49.625,7.834L48.527,7.84C48.364,7.842 48.318,7.728 48.299,7.658C48.28,7.587 48.263,7.465 48.405,7.385L49.359,6.842C49.362,6.841 49.363,6.839 49.367,6.839C49.383,6.834 49.398,6.844 49.402,6.86L49.449,7.034C49.453,7.049 49.443,7.065 49.429,7.072L48.51,7.573C48.491,7.583 48.486,7.59 48.491,7.606C48.495,7.623 48.503,7.626 48.524,7.625L49.57,7.599C49.586,7.599 49.603,7.608 49.607,7.623L49.653,7.796C49.658,7.813 49.65,7.829 49.633,7.833C49.63,7.834 49.628,7.833 49.625,7.834ZM46.238,6.431L47.019,7.203C47.135,7.317 47.087,7.43 47.051,7.493C47.015,7.556 46.94,7.654 46.784,7.611L45.725,7.32C45.722,7.319 45.72,7.319 45.717,7.318C45.702,7.309 45.699,7.291 45.707,7.277L45.797,7.121C45.805,7.108 45.823,7.103 45.838,7.108L46.842,7.404C46.862,7.41 46.871,7.409 46.879,7.394C46.888,7.38 46.884,7.372 46.869,7.357L46.111,6.636C46.099,6.625 46.094,6.606 46.102,6.593L46.192,6.438C46.2,6.423 46.217,6.417 46.232,6.426C46.235,6.428 46.235,6.43 46.238,6.431ZM49.043,6.431L48.272,7.212C48.158,7.328 48.045,7.28 47.982,7.244C47.919,7.207 47.821,7.133 47.864,6.977L48.155,5.918C48.156,5.915 48.156,5.913 48.157,5.91C48.166,5.895 48.184,5.892 48.198,5.9L48.354,5.99C48.367,5.998 48.372,6.016 48.367,6.031L48.071,7.035C48.065,7.055 48.066,7.064 48.081,7.072C48.095,7.081 48.103,7.077 48.118,7.062L48.839,6.304C48.85,6.292 48.868,6.287 48.882,6.295L49.037,6.385C49.052,6.393 49.058,6.41 49.049,6.425C49.047,6.428 49.045,6.428 49.043,6.431ZM47.641,5.85L47.647,6.948C47.649,7.111 47.535,7.157 47.465,7.176C47.394,7.195 47.273,7.211 47.193,7.07L46.649,6.116C46.649,6.113 46.646,6.112 46.646,6.108C46.641,6.092 46.651,6.077 46.668,6.073L46.841,6.026C46.856,6.022 46.872,6.032 46.88,6.046L47.38,6.965C47.39,6.984 47.397,6.989 47.413,6.984C47.43,6.98 47.433,6.972 47.433,6.951L47.406,5.904C47.406,5.889 47.415,5.872 47.43,5.868L47.603,5.822C47.62,5.817 47.636,5.825 47.64,5.842C47.641,5.845 47.64,5.847 47.641,5.85Z" style="fill:rgb(1,103,108);"/>
            <path d="M61.842,3.469C61.997,3.197 61.902,2.852 61.631,2.697L58.126,0.697C57.855,0.542 57.509,0.637 57.354,0.908L51.349,11.434C51.194,11.705 51.288,12.051 51.56,12.206L55.065,14.206C55.336,14.36 55.682,14.266 55.836,13.995L61.842,3.469Z" style="fill:rgb(1,103,108);"/>
        </g>
    </g>
</svg>
