<?xml version="1.0" encoding="UTF-8" standalone="no"?><!DOCTYPE svg PUBLIC "-//W3C//DTD SVG 1.1//EN" "http://www.w3.org/Graphics/SVG/1.1/DTD/svg11.dtd"><svg width="100%" height="100%" viewBox="0 0 109 60" version="1.1" xmlns="http://www.w3.org/2000/svg" xmlns:xlink="http://www.w3.org/1999/xlink" xml:space="preserve" xmlns:serif="http://www.serif.com/" style="fill-rule:evenodd;clip-rule:evenodd;stroke-linejoin:round;"><path d="M104.708,0.5c1.454,-0 2.822,0.709 3.404,1.764c0.257,0.467 0.335,0.94 0.233,1.409c-0.187,0.85 -0.948,1.607 -1.989,1.974l-88.197,31.069c-0.065,0.024 -0.135,0.035 -0.208,0.035c-0.222,0.001 -0.385,-0.108 -0.426,-0.182c0,0 -1.836,-3.327 -2.415,-4.377c-0.077,-0.138 -0.039,-0.312 0.09,-0.407c5.273,-1.868 88.06,-31.042 88.06,-31.042c0.459,-0.162 0.946,-0.243 1.448,-0.243m-0,-0.5c-0.511,0 -1.028,0.083 -1.522,0.257l-88.196,31.07c-0.363,0.127 -0.524,0.475 -0.358,0.775l2.644,4.789c0.123,0.225 0.395,0.359 0.675,0.359c0.095,0 0.191,-0.015 0.282,-0.047l88.197,-31.07c1.963,-0.692 2.828,-2.567 1.932,-4.19c-0.67,-1.214 -2.136,-1.943 -3.654,-1.943" style="fill:#787878;fill-rule:nonzero;"/><path d="M106.43,6.133l-88.197,31.07c-0.363,0.127 -0.792,-0.011 -0.958,-0.312l-2.642,-4.789c-0.046,-0.082 -0.067,-0.168 -0.066,-0.252l-0.009,0.71c-0.001,0.084 0.02,0.17 0.066,0.252l2.643,4.789c0.165,0.301 0.594,0.44 0.957,0.312l88.197,-31.07c1.425,-0.502 2.271,-1.627 2.286,-2.826l0.009,-0.71c-0.015,1.199 -0.861,2.324 -2.286,2.826" style="fill:#787878;fill-rule:nonzero;"/><path d="M20.571,51.262c0.081,-0 0.138,0.032 0.144,0.032c0,0 1.001,1.813 1.427,2.585c0.048,0.086 0.054,0.188 0.02,0.279c-0.035,0.09 -0.107,0.162 -0.2,0.194c-2.025,0.714 -11.711,4.126 -11.711,4.126c-0.027,0.009 -0.058,0.015 -0.091,0.015c-0.064,-0 -0.117,-0.021 -0.136,-0.03c-0.005,-0 -0.008,-0.003 -0.01,-0.007c-0.059,-0.107 -1.243,-2.251 -1.544,-2.798c-0.017,-0.031 -0.02,-0.069 -0.008,-0.102c0.013,-0.033 0.04,-0.06 0.074,-0.072c1.327,-0.467 11.944,-4.207 11.944,-4.207c0.028,-0.01 0.06,-0.015 0.091,-0.015m0,-0.5c-0.055,0 -0.111,0.009 -0.164,0.028l-12.218,4.304c-0.211,0.075 -0.306,0.277 -0.208,0.453l1.786,3.235c0.072,0.131 0.229,0.21 0.393,0.21c0.056,0 0.111,-0.009 0.165,-0.028l12.217,-4.304c0.213,-0.075 0.306,-0.277 0.209,-0.452l-1.785,-3.236c-0.072,-0.131 -0.231,-0.21 -0.395,-0.21" style="fill:#787878;fill-rule:nonzero;"/><path d="M22.542,54.66l-12.217,4.304c-0.212,0.074 -0.462,-0.007 -0.559,-0.182l-1.785,-3.236c-0.027,-0.048 -0.039,-0.098 -0.038,-0.147l-0.005,0.355c-0.001,0.05 0.011,0.1 0.038,0.148l1.786,3.235c0.097,0.175 0.347,0.257 0.559,0.182l12.217,-4.304c0.154,-0.054 0.246,-0.175 0.247,-0.305l0.004,-0.355c-0.001,0.129 -0.093,0.251 -0.247,0.305" style="fill:#787878;fill-rule:nonzero;"/><path d="M13.766,52.515l0.003,-4.507l-1.059,0.447l-1.784,-4.313l1.06,-0.447l-3.179,-3.164l-0.003,4.507l1.059,-0.447l1.785,4.314l-1.06,0.447l3.178,3.163Z" style="fill:#747474;fill-rule:nonzero;"/><path d="M12.961,33.492c-0.056,0 -0.113,0.009 -0.167,0.028l-12.357,4.304c-0.214,0.075 -0.309,0.277 -0.211,0.452l1.807,3.236c0.073,0.131 0.232,0.21 0.398,0.21c0.055,-0 0.112,-0.009 0.166,-0.028l12.357,-4.304c0.215,-0.075 0.309,-0.277 0.211,-0.452l-1.806,-3.236c-0.073,-0.131 -0.232,-0.21 -0.398,-0.21" style="fill:none;fill-rule:nonzero;stroke:#828282;stroke-width:0.38px;stroke-dasharray:0.75,0.75,0.75,0.75;stroke-dashoffset:0.75;"/><path d="M8.537,55.464c-0.039,0.013 -0.07,0.043 -0.085,0.082c-0.014,0.039 -0.011,0.081 0.008,0.117c0.278,0.505 1.205,2.188 1.514,2.752c0.06,0.107 0.187,0.155 0.303,0.115c1.421,-0.505 10.005,-3.552 11.761,-4.176c0.079,-0.028 0.14,-0.089 0.17,-0.166c0.03,-0.077 0.023,-0.164 -0.017,-0.236c-0.361,-0.653 -1.221,-2.206 -1.459,-2.636c-0.036,-0.065 -0.113,-0.094 -0.183,-0.069c-1.183,0.414 -10.677,3.748 -12.012,4.217" style="fill:#fff;"/><g opacity="0.4"><path d="M40.586,24.884c0.162,-0.058 0.288,-0.086 0.405,-0.103c0.024,-0.003 0.052,0.003 0.065,0.025l0.084,0.138c0.013,0.021 0.003,0.043 -0.019,0.051l-0.004,0.002c-0.093,0.021 -0.316,0.089 -0.396,0.118c-0.194,0.069 -0.216,0.151 -0.147,0.263c0.045,0.075 0.11,0.099 0.299,0.123l0.379,0.049c0.267,0.033 0.389,0.125 0.471,0.26c0.128,0.212 0.083,0.414 -0.321,0.559c-0.144,0.051 -0.356,0.103 -0.439,0.114c-0.024,0.004 -0.05,-0.004 -0.061,-0.022l-0.087,-0.143c-0.012,-0.019 -0.006,-0.04 0.016,-0.048l0.004,-0.001c0.151,-0.039 0.299,-0.084 0.441,-0.133c0.16,-0.058 0.197,-0.131 0.144,-0.218c-0.038,-0.064 -0.099,-0.09 -0.282,-0.108l-0.339,-0.036c-0.311,-0.032 -0.448,-0.132 -0.54,-0.284c-0.119,-0.194 -0.108,-0.451 0.327,-0.606" style="fill:#777;fill-rule:nonzero;"/><path d="M38.806,25.552c0.064,-0.035 0.138,-0.082 0.397,-0.174c0.282,-0.101 0.543,-0.112 0.741,0.214l0.408,0.672c0.199,0.327 0.021,0.472 -0.262,0.573c-0.258,0.092 -0.354,0.105 -0.429,0.12c-0.035,0.008 -0.052,0.003 -0.068,-0.024l-0.075,-0.124c-0.013,-0.021 -0.004,-0.045 0.02,-0.053l0.443,-0.159c0.126,-0.045 0.149,-0.099 0.071,-0.226l-0.126,-0.208l-0.589,0.209c-0.023,0.009 -0.054,-0.001 -0.067,-0.022l-0.084,-0.138c-0.013,-0.021 -0.004,-0.046 0.02,-0.055l0.589,-0.21l-0.151,-0.247c-0.077,-0.127 -0.146,-0.15 -0.272,-0.105l-0.443,0.159c-0.024,0.008 -0.054,-0.002 -0.067,-0.023l-0.075,-0.124c-0.016,-0.027 -0.012,-0.039 0.019,-0.055" style="fill:#777;fill-rule:nonzero;"/><path d="M37.204,26.108l0.223,-0.079c0.024,-0.008 0.05,0.004 0.063,0.025l0.528,0.867c0.133,0.219 0.274,0.276 0.483,0.201c0.108,-0.038 0.223,-0.089 0.29,-0.121l-0.705,-1.16c-0.014,-0.021 -0.006,-0.045 0.018,-0.053l0.219,-0.078c0.024,-0.009 0.052,0.002 0.064,0.023l0.777,1.275c0.042,0.071 0.029,0.097 -0.033,0.131c-0.108,0.057 -0.334,0.158 -0.46,0.203c-0.404,0.144 -0.709,0.096 -0.958,-0.313l-0.527,-0.867c-0.013,-0.021 -0.006,-0.045 0.018,-0.054" style="fill:#777;fill-rule:nonzero;"/><path d="M36.384,26.382c0.163,-0.058 0.289,-0.086 0.406,-0.102c0.024,-0.005 0.052,0.002 0.064,0.023l0.085,0.139c0.013,0.021 0.002,0.043 -0.019,0.051l-0.005,0.001c-0.092,0.021 -0.316,0.09 -0.396,0.119c-0.193,0.068 -0.215,0.151 -0.147,0.262c0.046,0.075 0.11,0.099 0.299,0.123l0.38,0.05c0.266,0.034 0.388,0.125 0.47,0.259c0.129,0.212 0.083,0.416 -0.321,0.56c-0.143,0.051 -0.355,0.103 -0.438,0.114c-0.024,0.004 -0.05,-0.004 -0.061,-0.023l-0.087,-0.142c-0.012,-0.019 -0.006,-0.04 0.016,-0.047l0.005,-0.003c0.15,-0.039 0.298,-0.082 0.439,-0.132c0.161,-0.058 0.198,-0.132 0.146,-0.219c-0.039,-0.063 -0.099,-0.088 -0.283,-0.107l-0.339,-0.036c-0.311,-0.032 -0.449,-0.133 -0.541,-0.284c-0.118,-0.194 -0.108,-0.452 0.327,-0.606" style="fill:#777;fill-rule:nonzero;"/><path d="M33.971,28.728l0.38,-0.136l-0.71,-1.167c-0.013,-0.021 -0.004,-0.045 0.02,-0.053l0.215,-0.077c0.024,-0.008 0.054,0.002 0.067,0.022l0.71,1.168l0.38,-0.136c0.024,-0.008 0.052,-0.002 0.065,0.019l0.092,0.152c0.013,0.021 0.003,0.044 -0.021,0.052l-1.063,0.379c-0.024,0.009 -0.053,0.001 -0.066,-0.02l-0.092,-0.153c-0.013,-0.021 -0.001,-0.041 0.023,-0.05" style="fill:#777;fill-rule:nonzero;"/><path d="M32.659,27.729l0.215,-0.077c0.024,-0.008 0.054,0.002 0.067,0.023l0.823,1.354c0.013,0.021 0.003,0.042 -0.021,0.051l-0.216,0.077c-0.023,0.009 -0.052,-0 -0.065,-0.02l-0.823,-1.355c-0.013,-0.021 -0.004,-0.045 0.02,-0.053" style="fill:#777;fill-rule:nonzero;"/><path d="M31.853,29.703l-0.378,-1.332c-0.056,-0.197 0.09,-0.271 0.183,-0.304c0.094,-0.033 0.261,-0.072 0.422,0.088l1.09,1.079c0.002,0.003 0.005,0.005 0.008,0.009c0.011,0.019 0.002,0.039 -0.02,0.046l-0.23,0.082c-0.019,0.007 -0.046,-0.002 -0.061,-0.018l-1.018,-1.043c-0.021,-0.021 -0.032,-0.026 -0.054,-0.018c-0.022,0.008 -0.023,0.018 -0.016,0.043l0.388,1.268c0.006,0.018 -0.002,0.04 -0.022,0.047l-0.23,0.082c-0.021,0.008 -0.047,0.001 -0.059,-0.018c-0.002,-0.004 -0.001,-0.007 -0.003,-0.011" style="fill:#777;fill-rule:nonzero;"/><path d="M35.677,26.705l0.377,1.332c0.057,0.198 -0.089,0.27 -0.183,0.304c-0.093,0.033 -0.26,0.072 -0.421,-0.088l-1.09,-1.078c-0.002,-0.005 -0.005,-0.005 -0.008,-0.01c-0.012,-0.019 -0.003,-0.038 0.019,-0.046l0.231,-0.082c0.02,-0.007 0.046,0.002 0.061,0.018l1.018,1.042c0.021,0.021 0.032,0.027 0.054,0.018c0.021,-0.006 0.023,-0.017 0.015,-0.042l-0.387,-1.268c-0.006,-0.019 0.002,-0.04 0.021,-0.047l0.231,-0.083c0.021,-0.007 0.047,0 0.059,0.019c0.002,0.005 0.001,0.007 0.003,0.011" style="fill:#777;fill-rule:nonzero;"/><path d="M29.872,28.736c0.064,-0.034 0.138,-0.082 0.397,-0.174c0.282,-0.1 0.543,-0.112 0.741,0.215l0.408,0.672c0.199,0.326 0.021,0.471 -0.261,0.573c-0.259,0.092 -0.354,0.105 -0.43,0.12c-0.035,0.007 -0.052,0.002 -0.068,-0.025l-0.075,-0.123c-0.013,-0.021 -0.004,-0.046 0.02,-0.055l0.443,-0.157c0.127,-0.045 0.149,-0.099 0.071,-0.227l-0.126,-0.208l-0.589,0.21c-0.023,0.009 -0.054,-0.002 -0.067,-0.023l-0.084,-0.138c-0.013,-0.021 -0.004,-0.045 0.02,-0.054l0.589,-0.21l-0.151,-0.247c-0.077,-0.127 -0.146,-0.15 -0.272,-0.105l-0.443,0.159c-0.024,0.007 -0.054,-0.003 -0.067,-0.024l-0.075,-0.123c-0.016,-0.027 -0.012,-0.04 0.019,-0.056" style="fill:#777;fill-rule:nonzero;"/></g><g opacity="0.4"><path d="M26.58,33.394l-0.323,-1.346c-0.049,-0.2 0.088,-0.269 0.175,-0.3c0.088,-0.03 0.244,-0.064 0.39,0.101l0.99,1.112c0.003,0.004 0.006,0.005 0.007,0.009c0.011,0.02 0.002,0.04 -0.019,0.047l-0.215,0.075c-0.018,0.006 -0.043,-0.003 -0.056,-0.02l-0.925,-1.075c-0.019,-0.021 -0.028,-0.027 -0.049,-0.019c-0.02,0.007 -0.022,0.016 -0.015,0.043l0.334,1.281c0.005,0.02 -0.003,0.041 -0.021,0.048l-0.216,0.075c-0.02,0.006 -0.043,-0.001 -0.054,-0.021c-0.002,-0.004 -0.001,-0.006 -0.003,-0.01" style="fill:#777;fill-rule:nonzero;"/><path d="M25.442,28.526l0.324,1.346c0.048,0.199 -0.089,0.268 -0.177,0.298c-0.087,0.031 -0.243,0.066 -0.389,-0.099l-0.99,-1.113c-0.002,-0.004 -0.005,-0.005 -0.007,-0.009c-0.011,-0.019 -0.002,-0.039 0.018,-0.046l0.216,-0.076c0.018,-0.007 0.043,0.003 0.057,0.02l0.924,1.074c0.018,0.022 0.029,0.027 0.049,0.021c0.02,-0.008 0.023,-0.018 0.016,-0.043l-0.335,-1.282c-0.005,-0.019 0.003,-0.04 0.021,-0.047l0.216,-0.075c0.021,-0.008 0.044,0.001 0.054,0.019c0.003,0.005 0.002,0.008 0.003,0.012" style="fill:#777;fill-rule:nonzero;"/><path d="M28.63,30.746l-1.448,0.125c-0.214,0.02 -0.307,-0.114 -0.353,-0.198c-0.045,-0.085 -0.102,-0.232 0.062,-0.346l1.104,-0.77c0.004,-0 0.005,-0.003 0.009,-0.004c0.02,-0.007 0.043,0.003 0.054,0.023l0.111,0.207c0.009,0.018 0.001,0.039 -0.015,0.05l-1.071,0.713c-0.021,0.014 -0.026,0.023 -0.015,0.043c0.01,0.019 0.021,0.022 0.048,0.02l1.375,-0.145c0.02,-0.002 0.045,0.007 0.054,0.026l0.111,0.207c0.011,0.02 0.005,0.04 -0.016,0.048c-0.003,0.001 -0.006,-0 -0.01,0.001" style="fill:#777;fill-rule:nonzero;"/><path d="M23.393,31.173l1.447,-0.126c0.214,-0.019 0.308,0.116 0.353,0.2c0.045,0.084 0.102,0.231 -0.062,0.345l-1.103,0.769c-0.005,0.002 -0.005,0.004 -0.01,0.005c-0.02,0.008 -0.043,-0.003 -0.053,-0.023l-0.111,-0.207c-0.009,-0.018 -0.002,-0.04 0.015,-0.05l1.07,-0.713c0.021,-0.015 0.026,-0.023 0.016,-0.043c-0.011,-0.019 -0.022,-0.023 -0.05,-0.02l-1.374,0.145c-0.02,0.002 -0.045,-0.007 -0.054,-0.025l-0.111,-0.207c-0.01,-0.021 -0.005,-0.042 0.016,-0.048c0.004,-0.002 0.007,-0 0.011,-0.002" style="fill:#777;fill-rule:nonzero;"/><path d="M28.265,32.53l-1.252,-0.863c-0.186,-0.127 -0.155,-0.271 -0.125,-0.353c0.03,-0.081 0.099,-0.209 0.319,-0.173l1.481,0.243c0.003,0.001 0.006,0.001 0.011,0.003c0.022,0.009 0.031,0.03 0.025,0.049l-0.075,0.2c-0.006,0.016 -0.029,0.025 -0.05,0.021l-1.411,-0.256c-0.027,-0.004 -0.039,-0.003 -0.045,0.016c-0.007,0.019 -0,0.028 0.023,0.045l1.208,0.803c0.019,0.012 0.031,0.035 0.024,0.051l-0.073,0.201c-0.008,0.019 -0.028,0.028 -0.051,0.019c-0.003,-0.001 -0.005,-0.004 -0.009,-0.006" style="fill:#777;fill-rule:nonzero;"/><path d="M23.758,29.389l1.252,0.863c0.185,0.128 0.155,0.272 0.124,0.353c-0.029,0.081 -0.1,0.21 -0.319,0.173l-1.48,-0.242c-0.005,-0.003 -0.007,-0.001 -0.011,-0.003c-0.022,-0.009 -0.032,-0.03 -0.025,-0.049l0.074,-0.201c0.006,-0.017 0.029,-0.024 0.05,-0.02l1.41,0.255c0.029,0.005 0.039,0.003 0.047,-0.016c0.007,-0.019 -0,-0.028 -0.024,-0.044l-1.208,-0.804c-0.018,-0.012 -0.03,-0.035 -0.024,-0.051l0.074,-0.201c0.007,-0.019 0.028,-0.027 0.049,-0.018c0.005,0 0.006,0.004 0.011,0.005" style="fill:#777;fill-rule:nonzero;"/><path d="M27.461,29.087l-0.795,1.041c-0.117,0.156 -0.281,0.109 -0.374,0.071c-0.094,-0.038 -0.244,-0.119 -0.232,-0.315l0.08,-1.331c0.001,-0.003 -0,-0.006 0.001,-0.01c0.007,-0.02 0.03,-0.026 0.051,-0.017l0.231,0.094c0.02,0.008 0.032,0.03 0.03,0.049l-0.103,1.264c-0.002,0.026 0.001,0.036 0.023,0.045c0.023,0.009 0.032,0.003 0.047,-0.017l0.735,-1.008c0.01,-0.016 0.033,-0.023 0.053,-0.015l0.231,0.092c0.022,0.009 0.034,0.03 0.028,0.049c-0.003,0.003 -0.005,0.005 -0.006,0.008" style="fill:#777;fill-rule:nonzero;"/><path d="M24.562,32.831l0.794,-1.04c0.118,-0.155 0.281,-0.109 0.374,-0.071c0.094,0.038 0.245,0.119 0.232,0.316l-0.08,1.33c-0.002,0.004 -0,0.006 -0.001,0.01c-0.007,0.019 -0.029,0.026 -0.052,0.016l-0.23,-0.093c-0.02,-0.007 -0.032,-0.031 -0.03,-0.049l0.104,-1.264c0.001,-0.026 -0.003,-0.036 -0.024,-0.045c-0.022,-0.008 -0.031,-0.004 -0.046,0.017l-0.735,1.008c-0.011,0.015 -0.034,0.023 -0.053,0.016l-0.231,-0.094c-0.022,-0.009 -0.035,-0.029 -0.028,-0.048c0.001,-0.004 0.004,-0.004 0.006,-0.009" style="fill:#777;fill-rule:nonzero;"/></g><path d="M25.713,31.066c-0.091,-0.172 -0.022,-0.361 0.156,-0.423c0.178,-0.062 0.395,0.025 0.487,0.197c0.091,0.17 0.022,0.361 -0.156,0.423c-0.178,0.062 -0.395,-0.027 -0.487,-0.197" style="fill:#444;fill-rule:nonzero;"/><path d="M25.499,29.963l-2.044,-3.765" style="fill:none;fill-rule:nonzero;stroke:#444;stroke-width:0.45px;stroke-linecap:round;"/><path d="M26.372,29.988l1.556,-4.163" style="fill:none;fill-rule:nonzero;stroke:#444;stroke-width:0.45px;stroke-linecap:round;"/><path d="M27.032,30.574l3.954,-1.284" style="fill:none;fill-rule:nonzero;stroke:#444;stroke-width:0.45px;stroke-linecap:round;"/><path d="M27.1,31.392l4.23,1.727" style="fill:none;fill-rule:nonzero;stroke:#444;stroke-width:0.45px;stroke-linecap:round;"/><path d="M26.51,31.96l2.22,3.985" style="fill:none;fill-rule:nonzero;stroke:#444;stroke-width:0.45px;stroke-linecap:round;"/><path d="M24.924,30.53l-4.233,-1.705" style="fill:none;fill-rule:nonzero;stroke:#444;stroke-width:0.45px;stroke-linecap:round;"/><path d="M24.988,31.342l-4.136,1.386" style="fill:none;fill-rule:nonzero;stroke:#444;stroke-width:0.45px;stroke-linecap:round;"/><path d="M25.643,31.928l-1.554,4.299" style="fill:none;fill-rule:nonzero;stroke:#444;stroke-width:0.45px;stroke-linecap:round;"/></svg>