<?xml version="1.0" encoding="UTF-8" standalone="no"?><!DOCTYPE svg PUBLIC "-//W3C//DTD SVG 1.1//EN" "http://www.w3.org/Graphics/SVG/1.1/DTD/svg11.dtd"><svg width="100%" height="100%" viewBox="0 0 550 550" version="1.1" xmlns="http://www.w3.org/2000/svg" xmlns:xlink="http://www.w3.org/1999/xlink" xml:space="preserve" xmlns:serif="http://www.serif.com/" style="fill-rule:evenodd;clip-rule:evenodd;stroke-linejoin:round;stroke-miterlimit:1.41421;"><g><path d="M346.712,5.238l-39.043,149.271c-5.716,22.141 -22.856,24.285 -33.1,24.285c-10.231,0 -27.369,-2.144 -33.085,-24.285l-39.047,-149.271c0,-0.475 -0.234,-0.713 -0.234,-1.188c0,-2.381 1.903,-4.05 4.285,-4.05l25.237,0c2.137,0 4.044,1.906 4.519,4.05l34.525,143.078c0.706,2.86 1.425,3.81 3.8,3.81c2.384,0 3.1,-0.95 3.812,-3.81l34.525,-143.078c0.475,-2.144 2.378,-4.05 4.522,-4.05l25.238,0c2.378,0 4.284,1.669 4.284,4.05c0,0.475 -0.238,0.713 -0.238,1.188Z" style="fill:#054225;fill-rule:nonzero;"/><path d="M202.437,543.913l39.047,-149.269c5.716,-22.141 22.854,-24.281 33.085,-24.281c10.247,0 27.384,2.14 33.1,24.281l39.043,149.269c0,0.478 0.241,0.718 0.241,1.19c0,2.381 -1.909,4.05 -4.287,4.05l-25.238,0c-2.14,0 -4.047,-1.903 -4.522,-4.05l-34.525,-143.078c-0.712,-2.856 -1.422,-3.812 -3.812,-3.812c-2.372,0 -3.094,0.956 -3.8,3.812l-34.522,143.078c-0.475,2.147 -2.381,4.05 -4.522,4.05l-25.237,0c-2.382,0 -4.285,-1.669 -4.285,-4.05c0,-0.472 0.234,-0.712 0.234,-1.19Z" style="fill:#054225;fill-rule:nonzero;"/><path d="M5.234,202.444l149.272,39.044c22.141,5.712 24.285,22.853 24.285,33.09c0,10.238 -2.144,27.378 -24.285,33.094l-149.272,39.044c-0.471,0 -0.712,0.234 -1.19,0.234c-2.378,0 -4.044,-1.903 -4.044,-4.284l0,-25.238c0,-2.14 1.906,-4.047 4.044,-4.522l143.081,-34.518c2.859,-0.716 3.809,-1.429 3.809,-3.81c0,-2.381 -0.95,-3.097 -3.809,-3.809l-143.081,-34.522c-2.138,-0.475 -4.044,-2.378 -4.044,-4.522l0,-25.234c0,-2.385 1.666,-4.288 4.044,-4.288c0.478,0 0.719,0.241 1.19,0.241Z" style="fill:#89b18f;fill-rule:nonzero;"/><path d="M543.913,346.713l-149.272,-39.044c-22.141,-5.716 -24.279,-22.853 -24.279,-33.091c0,-10.237 2.138,-27.378 24.279,-33.094l149.272,-39.043c0.478,0 0.718,-0.238 1.19,-0.238c2.381,0 4.05,1.903 4.05,4.288l0,25.234c0,2.141 -1.909,4.047 -4.05,4.522l-143.078,34.522c-2.856,0.712 -3.813,1.428 -3.813,3.809c0,2.381 0.957,3.094 3.813,3.806l143.078,34.522c2.141,0.475 4.05,2.378 4.05,4.522l0,25.238c0,2.378 -1.669,4.284 -4.05,4.284c-0.472,0 -0.712,-0.237 -1.19,-0.237Z" style="fill:#054225;fill-rule:nonzero;"/><path d="M135.131,33.119l77.944,133.156c11.616,19.7 1.009,33.334 -6.228,40.575c-7.241,7.238 -20.872,17.841 -40.572,6.228l-133.159,-77.944c-0.338,-0.337 -0.672,-0.337 -1.007,-0.675c-1.684,-1.681 -1.522,-4.206 0.166,-5.89l17.841,-17.844c1.518,-1.516 4.212,-1.516 6.062,-0.337l125.581,76.765c2.529,1.516 3.707,1.685 5.391,0c1.684,-1.684 1.513,-2.862 0,-5.387l-76.766,-125.585c-1.175,-1.85 -1.178,-4.543 0.338,-6.059l17.844,-17.844c1.684,-1.684 4.209,-1.853 5.893,-0.172c0.338,0.338 0.335,0.678 0.672,1.013Z" style="fill:#054225;fill-rule:nonzero;"/><path d="M414.022,516.034l-77.944,-133.162c-11.615,-19.694 -1.009,-33.328 6.228,-40.566c7.241,-7.24 20.875,-17.847 40.572,-6.231l133.156,77.947c0.338,0.331 0.675,0.331 1.013,0.672c1.681,1.681 1.516,4.206 -0.169,5.887l-17.844,17.844c-1.515,1.519 -4.212,1.519 -6.062,0.341l-125.581,-76.766c-2.529,-1.512 -3.703,-1.681 -5.388,0c-1.681,1.684 -1.512,2.863 0,5.388l76.763,125.584c1.178,1.85 1.178,4.547 -0.338,6.062l-17.84,17.841c-1.685,1.688 -4.213,1.85 -5.894,0.169c-0.335,-0.335 -0.335,-0.672 -0.672,-1.01Z" style="fill:#054225;fill-rule:nonzero;"/><path d="M33.116,414.022l133.159,-77.947c19.7,-11.612 33.331,-1.006 40.572,6.231c7.237,7.241 17.844,20.875 6.231,40.575l-77.947,133.157c-0.334,0.337 -0.334,0.671 -0.672,1.012c-1.684,1.681 -4.209,1.513 -5.89,-0.175l-17.847,-17.841c-1.513,-1.515 -1.513,-4.212 -0.338,-6.062l76.766,-125.584c1.519,-2.522 1.684,-3.704 0,-5.388c-1.684,-1.681 -2.862,-1.512 -5.384,0l-125.588,76.769c-1.85,1.175 -4.54,1.175 -6.059,-0.341l-17.844,-17.847c-1.681,-1.678 -1.85,-4.206 -0.166,-5.887c0.335,-0.341 0.672,-0.341 1.007,-0.672Z" style="fill:#054225;fill-rule:nonzero;"/><path d="M516.034,135.134l-133.156,77.944c-19.697,11.613 -33.331,1.01 -40.575,-6.231c-7.234,-7.238 -17.84,-20.872 -6.228,-40.572l77.947,-133.156c0.334,-0.338 0.337,-0.675 0.672,-1.013c1.681,-1.681 4.209,-1.512 5.89,0.172l17.844,17.844c1.516,1.512 1.516,4.209 0.338,6.059l-76.763,125.582c-1.519,2.528 -1.687,3.706 0,5.39c1.681,1.685 2.859,1.513 5.385,0l125.584,-76.765c1.85,-1.179 4.544,-1.182 6.062,0.337l17.844,17.844c1.685,1.684 1.85,4.209 0.169,5.89c-0.338,0.338 -0.678,0.338 -1.013,0.675Z" style="fill:#054225;fill-rule:nonzero;"/><path d="M304.578,274.466c0,16.678 -13.519,30.197 -30.197,30.197c-16.678,0 -30.193,-13.519 -30.193,-30.197c0,-16.675 13.515,-30.197 30.193,-30.197c16.678,0 30.197,13.522 30.197,30.197Z" style="fill:#89b18f;fill-rule:nonzero;"/></g></svg>